<svg width="55" height="54" viewBox="0 0 55 54" fill="none" xmlns="http://www.w3.org/2000/svg">
<g id="vuesax/linear/card-coin">
<g id="card-coin">
<path id="Vector" d="M17 27.0596H27" stroke="#5ED5A8" stroke-width="1.5" stroke-miterlimit="10" stroke-linecap="round" stroke-linejoin="round"/>
<g id="Vector_2" filter="url(#filter0_d_739_2075)">
<path d="M19.22 23.5H24.78C26.56 23.5 27 23.94 27 25.7V29.81C27 31.57 26.56 32.01 24.78 32.01H19.22C17.44 32.01 17 31.57 17 29.81V25.7C17 23.94 17.44 23.5 19.22 23.5Z" stroke="#5ED5A8" stroke-width="1.5" stroke-linecap="round" stroke-linejoin="round" shape-rendering="crispEdges"/>
</g>
<g id="Group">
<path id="Vector_3" d="M37 25C37 28.87 33.87 32 30 32L31.05 30.25" stroke="#777777" stroke-width="1.5" stroke-linecap="round" stroke-linejoin="round"/>
<path id="Vector_4" d="M17 19C17 15.13 20.13 12 24 12L22.95 13.75" stroke="#777777" stroke-width="1.5" stroke-linecap="round" stroke-linejoin="round"/>
</g>
<g id="Vector_5" filter="url(#filter1_d_739_2075)">
<path d="M33.5 21C35.9853 21 38 18.9853 38 16.5C38 14.0147 35.9853 12 33.5 12C31.0147 12 29 14.0147 29 16.5C29 18.9853 31.0147 21 33.5 21Z" stroke="#5ED5A8" stroke-width="1.5" stroke-linecap="round" stroke-linejoin="round" shape-rendering="crispEdges"/>
</g>
</g>
</g>
<defs>
<filter id="filter0_d_739_2075" x="0.25" y="11.75" width="43.5" height="42.0098" filterUnits="userSpaceOnUse" color-interpolation-filters="sRGB">
<feFlood flood-opacity="0" result="BackgroundImageFix"/>
<feColorMatrix in="SourceAlpha" type="matrix" values="0 0 0 0 0 0 0 0 0 0 0 0 0 0 0 0 0 0 127 0" result="hardAlpha"/>
<feOffset dy="5"/>
<feGaussianBlur stdDeviation="8"/>
<feComposite in2="hardAlpha" operator="out"/>
<feColorMatrix type="matrix" values="0 0 0 0 0.368627 0 0 0 0 0.835294 0 0 0 0 0.658824 0 0 0 0.25 0"/>
<feBlend mode="normal" in2="BackgroundImageFix" result="effect1_dropShadow_739_2075"/>
<feBlend mode="normal" in="SourceGraphic" in2="effect1_dropShadow_739_2075" result="shape"/>
</filter>
<filter id="filter1_d_739_2075" x="12.25" y="0.25" width="42.5" height="42.5" filterUnits="userSpaceOnUse" color-interpolation-filters="sRGB">
<feFlood flood-opacity="0" result="BackgroundImageFix"/>
<feColorMatrix in="SourceAlpha" type="matrix" values="0 0 0 0 0 0 0 0 0 0 0 0 0 0 0 0 0 0 127 0" result="hardAlpha"/>
<feOffset dy="5"/>
<feGaussianBlur stdDeviation="8"/>
<feComposite in2="hardAlpha" operator="out"/>
<feColorMatrix type="matrix" values="0 0 0 0 0.368627 0 0 0 0 0.835294 0 0 0 0 0.658824 0 0 0 0.25 0"/>
<feBlend mode="normal" in2="BackgroundImageFix" result="effect1_dropShadow_739_2075"/>
<feBlend mode="normal" in="SourceGraphic" in2="effect1_dropShadow_739_2075" result="shape"/>
</filter>
</defs>
</svg>
