<svg width="52" height="50" viewBox="0 0 52 50" fill="none" xmlns="http://www.w3.org/2000/svg">
<g id="vuesax/bulk/login" filter="url(#filter0_d_217_8464)">
<g id="login">
<path id="Vector" d="M26.6899 11.9902L26.6899 18.0002L25.1899 18.0002L25.1899 11.9902C25.1899 11.5802 25.5299 11.2402 25.9399 11.2402C26.3499 11.2402 26.6899 11.5802 26.6899 11.9902Z" fill="#3E474F"/>
<path id="Subtract" fill-rule="evenodd" clip-rule="evenodd" d="M35.14 17.8994C35.62 17.8994 36 18.2794 36 18.7594C36 24.6394 31.88 28.7594 25.99 28.7594C20.1 28.7594 15.99 24.6494 15.99 18.7594C15.99 18.2794 16.38 17.8994 16.85 17.8994L25.1898 17.8994L25.1898 21.5596L23.6198 19.9996C23.3298 19.7096 22.8498 19.7096 22.5598 19.9996C22.4098 20.1496 22.3398 20.3396 22.3398 20.5296C22.3398 20.7196 22.4098 20.9096 22.5598 21.0596L25.4098 23.8996C25.6998 24.1996 26.1698 24.1996 26.4598 23.8996L29.3098 21.0596C29.5998 20.7696 29.5998 20.2896 29.3098 19.9996C29.0198 19.7096 28.5398 19.7096 28.2498 19.9996L26.6898 21.5596L26.6898 17.8994L35.14 17.8994Z" fill="#5ED5A8"/>
</g>
</g>
<defs>
<filter id="filter0_d_217_8464" x="-0.00976562" y="0.240234" width="52.0098" height="49.5195" filterUnits="userSpaceOnUse" color-interpolation-filters="sRGB">
<feFlood flood-opacity="0" result="BackgroundImageFix"/>
<feColorMatrix in="SourceAlpha" type="matrix" values="0 0 0 0 0 0 0 0 0 0 0 0 0 0 0 0 0 0 127 0" result="hardAlpha"/>
<feOffset dy="5"/>
<feGaussianBlur stdDeviation="8"/>
<feComposite in2="hardAlpha" operator="out"/>
<feColorMatrix type="matrix" values="0 0 0 0 0.368627 0 0 0 0 0.835294 0 0 0 0 0.658824 0 0 0 0.25 0"/>
<feBlend mode="normal" in2="BackgroundImageFix" result="effect1_dropShadow_217_8464"/>
<feBlend mode="normal" in="SourceGraphic" in2="effect1_dropShadow_217_8464" result="shape"/>
</filter>
</defs>
</svg>
