<svg width="46" height="54" viewBox="0 0 46 54" fill="none" xmlns="http://www.w3.org/2000/svg">
<g id="vuesax/linear/ethereum-(eth)">
<g id="ethereum-(eth)">
<g id="Group" filter="url(#filter0_d_739_2134)">
<path id="Vector" d="M21.4506 13.0496L17.7106 17.7096C16.8606 18.7696 17.1606 20.1296 18.3706 20.7296L22.1006 22.5996C22.5906 22.8396 23.3906 22.8396 23.8806 22.5996L27.6106 20.7296C28.8206 20.1196 29.1206 18.7596 28.2706 17.7096L24.5406 13.0496C23.7006 11.9796 22.3006 11.9796 21.4506 13.0496Z" stroke="#5ED5A8" stroke-width="1.5" stroke-miterlimit="10" stroke-linecap="round" stroke-linejoin="round"/>
<path id="Vector_2" d="M23 12.2998V17.5598" stroke="#5ED5A8" stroke-width="1.5" stroke-miterlimit="10" stroke-linecap="round" stroke-linejoin="round"/>
<path id="Vector_3" d="M18.8008 20.7096L23.0008 17.5596L27.2008 20.7096" stroke="#5ED5A8" stroke-width="1.5" stroke-miterlimit="10" stroke-linecap="round" stroke-linejoin="round"/>
<path id="Vector_4" d="M19.7701 24.4292L21.3801 25.1492C22.4101 25.6092 23.5901 25.6092 24.6301 25.1492L26.2401 24.4292C27.6801 23.7892 29.0101 25.5292 28.0101 26.7492L24.5501 30.9792C23.7001 32.0192 22.3101 32.0192 21.4501 30.9792L18.0001 26.7492C16.9901 25.5292 18.3201 23.7892 19.7701 24.4292Z" stroke="#5ED5A8" stroke-width="1.5" stroke-miterlimit="10" stroke-linecap="round" stroke-linejoin="round"/>
</g>
</g>
</g>
<defs>
<filter id="filter0_d_739_2134" x="0.476562" y="0.49707" width="45.0273" height="53.0117" filterUnits="userSpaceOnUse" color-interpolation-filters="sRGB">
<feFlood flood-opacity="0" result="BackgroundImageFix"/>
<feColorMatrix in="SourceAlpha" type="matrix" values="0 0 0 0 0 0 0 0 0 0 0 0 0 0 0 0 0 0 127 0" result="hardAlpha"/>
<feOffset dy="5"/>
<feGaussianBlur stdDeviation="8"/>
<feComposite in2="hardAlpha" operator="out"/>
<feColorMatrix type="matrix" values="0 0 0 0 0.368627 0 0 0 0 0.835294 0 0 0 0 0.658824 0 0 0 0.25 0"/>
<feBlend mode="normal" in2="BackgroundImageFix" result="effect1_dropShadow_739_2134"/>
<feBlend mode="normal" in="SourceGraphic" in2="effect1_dropShadow_739_2134" result="shape"/>
</filter>
</defs>
</svg>
