<svg width="52" height="52" viewBox="0 0 52 52" fill="none" xmlns="http://www.w3.org/2000/svg">
<g id="magic-star" filter="url(#filter0_d_704_277)">
<path id="Vector" d="M20.7097 13.14L20.7797 16.93C20.7897 17.45 20.4597 18.14 20.0397 18.45L17.5597 20.33C15.9697 21.53 16.2297 23 18.1297 23.6L21.3597 24.61C21.8997 24.78 22.4697 25.37 22.6097 25.92L23.3797 28.86C23.9897 31.18 25.5097 31.41 26.7697 29.37L28.5297 26.52C28.8497 26 29.6097 25.61 30.2097 25.64L33.5497 25.81C35.9397 25.93 36.6197 24.55 35.0597 22.73L33.0797 20.43C32.7097 20 32.5397 19.2 32.7097 18.66L33.7297 15.42C34.3197 13.52 33.2597 12.47 31.3697 13.09L28.4197 14.06C27.9197 14.22 27.1697 14.11 26.7497 13.8L23.6697 11.58C21.9997 10.39 20.6697 11.09 20.7097 13.14Z" fill="#5ED5A8"/>
<path id="Vector_2" d="M16.5597 29.4702L19.5897 26.4402C19.8797 26.1502 20.3597 26.1502 20.6497 26.4402C20.9397 26.7302 20.9397 27.2102 20.6497 27.5002L17.6197 30.5302C17.4697 30.6802 17.2797 30.7502 17.0897 30.7502C16.8997 30.7502 16.7097 30.6802 16.5597 30.5302C16.2697 30.2402 16.2697 29.7602 16.5597 29.4702Z" fill="#777777"/>
</g>
<defs>
<filter id="filter0_d_704_277" x="0.341797" y="0" width="51.5566" height="51.7617" filterUnits="userSpaceOnUse" color-interpolation-filters="sRGB">
<feFlood flood-opacity="0" result="BackgroundImageFix"/>
<feColorMatrix in="SourceAlpha" type="matrix" values="0 0 0 0 0 0 0 0 0 0 0 0 0 0 0 0 0 0 127 0" result="hardAlpha"/>
<feOffset dy="5"/>
<feGaussianBlur stdDeviation="8"/>
<feComposite in2="hardAlpha" operator="out"/>
<feColorMatrix type="matrix" values="0 0 0 0 0.368627 0 0 0 0 0.835294 0 0 0 0 0.658824 0 0 0 0.25 0"/>
<feBlend mode="normal" in2="BackgroundImageFix" result="effect1_dropShadow_704_277"/>
<feBlend mode="normal" in="SourceGraphic" in2="effect1_dropShadow_704_277" result="shape"/>
</filter>
</defs>
</svg>
