<svg width="54" height="54" viewBox="0 0 54 54" fill="none" xmlns="http://www.w3.org/2000/svg">
<g id="vuesax/linear/strongbox-2">
<g id="Vector" filter="url(#filter0_d_727_1981)">
<path d="M24 32H30C35 32 37 30 37 25V19C37 14 35 12 30 12H24C19 12 17 14 17 19V25C17 30 19 32 24 32Z" stroke="#5ED5A8" stroke-width="1.5" stroke-linecap="round" stroke-linejoin="round" shape-rendering="crispEdges"/>
</g>
<path id="Vector_2" d="M23 29H31C33 29 34 28 34 26V18C34 16 33 15 31 15H23C21 15 20 16 20 18V26C20 28 21 29 23 29Z" stroke="#777777" stroke-width="1.5" stroke-linecap="round" stroke-linejoin="round"/>
<path id="Vector_3" d="M20 19.5H22.48C23.86 19.5 24.98 20.62 24.98 22C24.98 23.38 23.86 24.5 22.48 24.5H20" stroke="#777777" stroke-width="1.5" stroke-linecap="round" stroke-linejoin="round"/>
<g id="Vector_4" filter="url(#filter1_d_727_1981)">
<path d="M34 19.9902H31" stroke="#5ED5A8" stroke-width="1.5" stroke-linecap="round" stroke-linejoin="round"/>
</g>
<g id="Vector_5" filter="url(#filter2_d_727_1981)">
<path d="M34 24H31" stroke="#5ED5A8" stroke-width="1.5" stroke-linecap="round" stroke-linejoin="round"/>
</g>
<path id="Vector_6" d="M22.2012 22H22.3012" stroke="#777777" stroke-width="2" stroke-miterlimit="10" stroke-linecap="round" stroke-linejoin="round"/>
</g>
<defs>
<filter id="filter0_d_727_1981" x="0.25" y="0.25" width="53.5" height="53.5" filterUnits="userSpaceOnUse" color-interpolation-filters="sRGB">
<feFlood flood-opacity="0" result="BackgroundImageFix"/>
<feColorMatrix in="SourceAlpha" type="matrix" values="0 0 0 0 0 0 0 0 0 0 0 0 0 0 0 0 0 0 127 0" result="hardAlpha"/>
<feOffset dy="5"/>
<feGaussianBlur stdDeviation="8"/>
<feComposite in2="hardAlpha" operator="out"/>
<feColorMatrix type="matrix" values="0 0 0 0 0.368627 0 0 0 0 0.835294 0 0 0 0 0.658824 0 0 0 0.25 0"/>
<feBlend mode="normal" in2="BackgroundImageFix" result="effect1_dropShadow_727_1981"/>
<feBlend mode="normal" in="SourceGraphic" in2="effect1_dropShadow_727_1981" result="shape"/>
</filter>
<filter id="filter1_d_727_1981" x="14.25" y="8.24023" width="36.5" height="33.5" filterUnits="userSpaceOnUse" color-interpolation-filters="sRGB">
<feFlood flood-opacity="0" result="BackgroundImageFix"/>
<feColorMatrix in="SourceAlpha" type="matrix" values="0 0 0 0 0 0 0 0 0 0 0 0 0 0 0 0 0 0 127 0" result="hardAlpha"/>
<feOffset dy="5"/>
<feGaussianBlur stdDeviation="8"/>
<feComposite in2="hardAlpha" operator="out"/>
<feColorMatrix type="matrix" values="0 0 0 0 0.368627 0 0 0 0 0.835294 0 0 0 0 0.658824 0 0 0 0.25 0"/>
<feBlend mode="normal" in2="BackgroundImageFix" result="effect1_dropShadow_727_1981"/>
<feBlend mode="normal" in="SourceGraphic" in2="effect1_dropShadow_727_1981" result="shape"/>
</filter>
<filter id="filter2_d_727_1981" x="14.25" y="12.25" width="36.5" height="33.5" filterUnits="userSpaceOnUse" color-interpolation-filters="sRGB">
<feFlood flood-opacity="0" result="BackgroundImageFix"/>
<feColorMatrix in="SourceAlpha" type="matrix" values="0 0 0 0 0 0 0 0 0 0 0 0 0 0 0 0 0 0 127 0" result="hardAlpha"/>
<feOffset dy="5"/>
<feGaussianBlur stdDeviation="8"/>
<feComposite in2="hardAlpha" operator="out"/>
<feColorMatrix type="matrix" values="0 0 0 0 0.368627 0 0 0 0 0.835294 0 0 0 0 0.658824 0 0 0 0.25 0"/>
<feBlend mode="normal" in2="BackgroundImageFix" result="effect1_dropShadow_727_1981"/>
<feBlend mode="normal" in="SourceGraphic" in2="effect1_dropShadow_727_1981" result="shape"/>
</filter>
</defs>
</svg>
