<svg width="52" height="52" viewBox="0 0 52 52" fill="none" xmlns="http://www.w3.org/2000/svg">
<g id="wallet" filter="url(#filter0_d_704_613)">
<path id="Vector" d="M25.9392 11.2098L23.5292 16.8198H21.1192C20.7192 16.8198 20.3292 16.8498 19.9492 16.9298L20.9492 14.5298L20.9892 14.4398L21.0492 14.2798C21.0792 14.2098 21.0992 14.1498 21.1292 14.0998C22.2892 11.4098 23.5892 10.5698 25.9392 11.2098Z" fill="#777777"/>
<path id="Vector_2" d="M32.7291 17.0895L32.7091 17.0795C32.1091 16.9095 31.4991 16.8195 30.8791 16.8195H24.6191L26.8691 11.5895L26.8991 11.5195C27.0391 11.5695 27.1891 11.6395 27.3391 11.6895L29.5491 12.6195C30.7791 13.1295 31.6391 13.6595 32.1691 14.2995C32.2591 14.4195 32.3391 14.5295 32.4191 14.6595C32.5091 14.7995 32.5791 14.9395 32.6191 15.0895C32.6591 15.1795 32.6891 15.2595 32.7091 15.3495C32.8591 15.8595 32.8691 16.4395 32.7291 17.0895Z" fill="#777777"/>
<path id="Vector_3" d="M26.5195 26.6601H26.7695C27.0695 26.6601 27.3195 26.3901 27.3195 26.0601C27.3195 25.6401 27.1995 25.5801 26.9395 25.4801L26.5195 25.3301V26.6601Z" fill="#5ED5A8"/>
<path id="Vector_4" d="M32.2902 18.5203C31.8402 18.3903 31.3702 18.3203 30.8802 18.3203H21.1202C20.4402 18.3203 19.8002 18.4503 19.2002 18.7103C17.4602 19.4603 16.2402 21.1903 16.2402 23.2003V25.1503C16.2402 25.3903 16.2602 25.6203 16.2902 25.8603C16.5102 29.0403 18.2102 30.7403 21.3902 30.9503C21.6202 30.9803 21.8502 31.0003 22.1002 31.0003H29.9002C33.6002 31.0003 35.5502 29.2403 35.7402 25.7403C35.7502 25.5503 35.7602 25.3503 35.7602 25.1503V23.2003C35.7602 20.9903 34.2902 19.1303 32.2902 18.5203ZM27.2802 24.5003C27.7402 24.6603 28.3602 25.0003 28.3602 26.0603C28.3602 26.9703 27.6502 27.7003 26.7702 27.7003H26.5202V27.9203C26.5202 28.2103 26.2902 28.4403 26.0002 28.4403C25.7102 28.4403 25.4802 28.2103 25.4802 27.9203V27.7003H25.3902C24.4302 27.7003 23.6402 26.8903 23.6402 25.8903C23.6402 25.6003 23.8702 25.3703 24.1602 25.3703C24.4502 25.3703 24.6802 25.6003 24.6802 25.8903C24.6802 26.3103 25.0002 26.6603 25.3902 26.6603H25.4802V24.9703L24.7202 24.7003C24.2602 24.5403 23.6402 24.2003 23.6402 23.1403C23.6402 22.2303 24.3502 21.5003 25.2302 21.5003H25.4802V21.2803C25.4802 20.9903 25.7102 20.7603 26.0002 20.7603C26.2902 20.7603 26.5202 20.9903 26.5202 21.2803V21.5003H26.6102C27.5702 21.5003 28.3602 22.3103 28.3602 23.3103C28.3602 23.6003 28.1302 23.8303 27.8402 23.8303C27.5502 23.8303 27.3202 23.6003 27.3202 23.3103C27.3202 22.8903 27.0002 22.5403 26.6102 22.5403H26.5202V24.2303L27.2802 24.5003Z" fill="#5ED5A8"/>
<path id="Vector_5" d="M24.6797 23.14C24.6797 23.56 24.7997 23.62 25.0597 23.72L25.4797 23.87V22.54H25.2297C24.9197 22.54 24.6797 22.81 24.6797 23.14Z" fill="#5ED5A8"/>
</g>
<defs>
<filter id="filter0_d_704_613" x="0.240234" y="0.00585938" width="51.5195" height="51.9941" filterUnits="userSpaceOnUse" color-interpolation-filters="sRGB">
<feFlood flood-opacity="0" result="BackgroundImageFix"/>
<feColorMatrix in="SourceAlpha" type="matrix" values="0 0 0 0 0 0 0 0 0 0 0 0 0 0 0 0 0 0 127 0" result="hardAlpha"/>
<feOffset dy="5"/>
<feGaussianBlur stdDeviation="8"/>
<feComposite in2="hardAlpha" operator="out"/>
<feColorMatrix type="matrix" values="0 0 0 0 0.368627 0 0 0 0 0.835294 0 0 0 0 0.658824 0 0 0 0.25 0"/>
<feBlend mode="normal" in2="BackgroundImageFix" result="effect1_dropShadow_704_613"/>
<feBlend mode="normal" in="SourceGraphic" in2="effect1_dropShadow_704_613" result="shape"/>
</filter>
</defs>
</svg>
