<svg width="182" height="182" viewBox="0 0 182 182" fill="none" xmlns="http://www.w3.org/2000/svg">
<g id="camera 1">
<path id="Vector" opacity="0.1" d="M16.6667 37.6673H51.7778V32.334C51.7778 25.6673 57.1111 20.334 63.7778 20.334H118.222C124.889 20.334 130.222 25.6673 130.222 32.334V37.6673H165.333C174.444 37.6673 182 45.2229 182 54.334V145.001C182 154.112 174.444 161.667 165.333 161.667H16.6667C7.55556 161.667 0 154.112 0 145.001V54.334C0 45.0007 7.55556 37.6673 16.6667 37.6673Z" fill="#5ED5A8"/>
<path id="Vector_2" opacity="0.1" d="M116.217 74.5546C109.773 68.1101 100.884 64.3324 91.1061 64.3324C81.3283 64.3324 72.4395 68.3324 65.995 74.7768C59.5506 81.2212 55.5506 90.1101 55.5506 99.8879C55.5506 109.666 59.5506 118.555 65.995 124.999C72.4395 131.443 81.3283 135.443 91.1061 135.443C100.884 135.443 109.773 131.443 116.217 124.999C122.662 118.555 126.662 109.666 126.662 99.8879C126.439 89.8879 122.439 80.999 116.217 74.5546ZM91.1061 54.999C103.328 54.999 114.662 59.8879 122.662 68.1101C130.662 76.1101 135.773 87.4435 135.773 99.6657C135.773 111.888 130.884 123.221 122.662 131.221C114.662 139.221 103.328 144.332 91.1061 144.332C78.8839 144.332 67.5506 139.443 59.5506 131.221C51.5506 123.221 46.4395 111.888 46.4395 99.6657C46.4395 87.4435 51.3283 76.1101 59.5506 68.1101C67.5506 59.8879 78.8839 54.999 91.1061 54.999Z" fill="#00B594"/>
<g id="Group">
<path id="Vector_3" opacity="0.1" d="M156 72.3325C160.909 72.3325 164.889 68.3528 164.889 63.4436C164.889 58.5344 160.909 54.5547 156 54.5547C151.091 54.5547 147.111 58.5344 147.111 63.4436C147.111 68.3528 151.091 72.3325 156 72.3325Z" fill="#5ED5A8"/>
<path id="Vector_4" opacity="0.1" d="M91.1085 124.11C104.609 124.11 115.553 113.165 115.553 99.6651C115.553 86.1648 104.609 75.2207 91.1085 75.2207C77.6082 75.2207 66.6641 86.1648 66.6641 99.6651C66.6641 113.165 77.6082 124.11 91.1085 124.11Z" fill="#5ED5A8"/>
</g>
</g>
</svg>
