<svg width="48" height="54" viewBox="0 0 48 54" fill="none" xmlns="http://www.w3.org/2000/svg">
<g id="vuesax/linear/coin" filter="url(#filter0_d_739_858)">
<path id="Vector" d="M30.5 22.6504V26.3504C30.5 29.4704 27.59 32.0004 24 32.0004C20.41 32.0004 17.5 29.4704 17.5 26.3504V22.6504C17.5 25.7704 20.41 28.0004 24 28.0004C27.59 28.0004 30.5 25.7704 30.5 22.6504Z" stroke="#5ED5A8" stroke-width="1.5" stroke-linecap="round" stroke-linejoin="round"/>
<path id="Vector_2" d="M30.5 17.65C30.5 18.56 30.25 19.4 29.81 20.12C28.74 21.88 26.54 23 24 23C21.46 23 19.26 21.88 18.19 20.12C17.75 19.4 17.5 18.56 17.5 17.65C17.5 16.09 18.23 14.68 19.4 13.66C20.58 12.63 22.2 12 24 12C25.8 12 27.42 12.63 28.6 13.65C29.77 14.68 30.5 16.09 30.5 17.65Z" stroke="#5ED5A8" stroke-width="1.5" stroke-linecap="round" stroke-linejoin="round"/>
<path id="Vector_3" d="M30.5 17.65V22.65C30.5 25.77 27.59 28 24 28C20.41 28 17.5 25.77 17.5 22.65V17.65C17.5 14.53 20.41 12 24 12C25.8 12 27.42 12.63 28.6 13.65C29.77 14.68 30.5 16.09 30.5 17.65Z" stroke="#5ED5A8" stroke-width="1.5" stroke-linecap="round" stroke-linejoin="round"/>
</g>
<defs>
<filter id="filter0_d_739_858" x="0.75" y="0.25" width="46.5" height="53.5" filterUnits="userSpaceOnUse" color-interpolation-filters="sRGB">
<feFlood flood-opacity="0" result="BackgroundImageFix"/>
<feColorMatrix in="SourceAlpha" type="matrix" values="0 0 0 0 0 0 0 0 0 0 0 0 0 0 0 0 0 0 127 0" result="hardAlpha"/>
<feOffset dy="5"/>
<feGaussianBlur stdDeviation="8"/>
<feComposite in2="hardAlpha" operator="out"/>
<feColorMatrix type="matrix" values="0 0 0 0 0.368627 0 0 0 0 0.835294 0 0 0 0 0.658824 0 0 0 0.25 0"/>
<feBlend mode="normal" in2="BackgroundImageFix" result="effect1_dropShadow_739_858"/>
<feBlend mode="normal" in="SourceGraphic" in2="effect1_dropShadow_739_858" result="shape"/>
</filter>
</defs>
</svg>
