<svg width="52" height="48" viewBox="0 0 52 48" fill="none" xmlns="http://www.w3.org/2000/svg">
<g id="vuesax/bulk/frame" filter="url(#filter0_d_704_2230)">
<path id="Vector" d="M22.02 11.6201H20.98C19.39 11.6201 18.75 12.2201 18.75 13.7401V25.6201H24.25V13.7401C24.24 12.2201 23.6 11.6201 22.02 11.6201Z" fill="#777777"/>
<path id="Vector_2" d="M30.52 16.6201H29.48C27.89 16.6201 27.25 17.2301 27.25 18.7401V25.6201H32.75V18.7401C32.75 17.2301 32.1 16.6201 30.52 16.6201Z" fill="#5ED5A8"/>
<path id="Vector_3" d="M16.75 24.8799H35.25C35.66 24.8799 36 25.2199 36 25.6299C36 26.0399 35.66 26.3799 35.25 26.3799H16.75C16.34 26.3799 16 26.0399 16 25.6199C16 25.1999 16.34 24.8799 16.75 24.8799Z" fill="#777777"/>
</g>
<defs>
<filter id="filter0_d_704_2230" x="0" y="0.620117" width="52" height="46.7598" filterUnits="userSpaceOnUse" color-interpolation-filters="sRGB">
<feFlood flood-opacity="0" result="BackgroundImageFix"/>
<feColorMatrix in="SourceAlpha" type="matrix" values="0 0 0 0 0 0 0 0 0 0 0 0 0 0 0 0 0 0 127 0" result="hardAlpha"/>
<feOffset dy="5"/>
<feGaussianBlur stdDeviation="8"/>
<feComposite in2="hardAlpha" operator="out"/>
<feColorMatrix type="matrix" values="0 0 0 0 0.368627 0 0 0 0 0.835294 0 0 0 0 0.658824 0 0 0 0.25 0"/>
<feBlend mode="normal" in2="BackgroundImageFix" result="effect1_dropShadow_704_2230"/>
<feBlend mode="normal" in="SourceGraphic" in2="effect1_dropShadow_704_2230" result="shape"/>
</filter>
</defs>
</svg>
